PathFileType	4	(X/Y/Z)	Kaydara	
DataRate	CameraRate	NumFrames	NumMarkers	Units	OrigDataRate	OrigDataStartFrame	OrigNumFrames	
30.00	30.00	12	28	mm	30.00	111	126	
Frame#	Time	reference			Hips			Spine			Spine1			Neck			Head			Head_End			LeftShoulder			LeftArm			LeftForeArm			LeftHand			LeftHand_End			RightShoulder			RightArm			RightForeArm			RightHand			RightHand_End			LeftUpLeg			LeftLeg			LeftFoot			LeftFoot_End			RightUpLeg			RightLeg			RightFoot			RightFoot_End			Tail			Tail1			Tail1_End			
		X1	Y1	Z1	X2	Y2	Z2	X3	Y3	Z3	X4	Y4	Z4	X5	Y5	Z5	X6	Y6	Z6	X7	Y7	Z7	X8	Y8	Z8	X9	Y9	Z9	X10	Y10	Z10	X11	Y11	Z11	X12	Y12	Z12	X13	Y13	Z13	X14	Y14	Z14	X15	Y15	Z15	X16	Y16	Z16	X17	Y17	Z17	X18	Y18	Z18	X19	Y19	Z19	X20	Y20	Z20	X21	Y21	Z21	X22	Y22	Z22	X23	Y23	Z23	X24	Y24	Z24	X25	Y25	Z25	X26	Y26	Z26	X27	Y27	Z27	X28	Y28	Z28	

111	3.667	0.00000	0.00000	0.00000	193.15453	-218.06854	469.20738	193.15459	-218.06859	469.20740	212.33566	-406.19900	450.79452	191.08216	-630.25791	448.17470	156.13547	-762.76793	476.80804	34.20687	-865.26170	417.40733	230.15380	-607.23067	409.67577	258.37184	-657.72533	354.41257	231.47099	-563.04111	238.58849	179.16757	-611.56643	75.51298	168.78486	-656.32144	20.07668	145.86788	-599.41359	424.86746	89.11794	-638.25570	383.96379	53.24867	-543.49796	270.65718	53.17884	-627.90542	113.94292	64.57320	-661.99849	51.55842	235.19659	-157.76318	389.54044	269.28154	-254.21081	266.51185	222.50021	-165.78128	116.87313	212.88193	-189.55493	11.96220	139.58977	-161.00484	394.20311	143.42711	-224.12056	247.22808	143.44742	-70.49515	153.42396	148.32104	-25.66034	55.29095	190.44638	-149.85035	461.10781	191.74248	-93.93330	354.94009	192.63301	-45.53877	245.13493 
112	3.700	0.00000	0.00000	0.00000	193.70209	-218.95874	469.29848	193.70215	-218.95879	469.29850	211.51400	-407.11260	449.78232	191.05702	-631.25551	448.22148	153.08621	-762.93066	476.85565	26.88492	-859.27681	416.10489	230.20948	-608.28765	409.76922	258.42140	-659.10771	354.80196	230.89319	-564.19286	239.31455	178.98485	-612.24302	75.97232	168.81352	-656.43640	20.04840	145.83347	-600.69028	424.56714	89.00930	-638.50493	382.81261	53.44488	-550.64773	263.98371	52.40721	-631.92492	105.62676	62.89764	-666.61192	43.41134	235.72706	-159.58985	388.92229	269.40196	-256.22155	265.92522	222.74028	-166.41244	117.07284	213.06577	-189.51875	12.01808	140.12169	-162.66751	393.72382	141.52721	-230.20942	248.68558	144.17429	-76.31179	155.36628	149.14452	-32.76541	56.65959	191.06426	-150.83143	460.44577	191.82799	-95.52964	353.95112	191.68412	-47.62746	243.92677 
113	3.733	0.00000	0.00000	0.00000	193.93307	-219.95415	469.25137	193.93313	-219.95419	469.25138	210.81936	-408.12315	449.06972	190.64512	-632.29530	448.16755	149.94651	-763.11498	476.97518	20.65110	-854.27042	414.73866	229.97422	-609.41046	409.84627	258.30700	-660.15289	354.86946	230.72151	-564.75675	239.79301	179.00658	-613.03755	76.45744	168.83902	-656.55590	20.00597	145.51116	-601.86727	424.16772	88.81972	-638.76482	381.42401	53.87832	-557.75623	257.64707	51.78435	-634.46520	97.03781	62.13016	-667.52230	33.91739	236.01731	-161.47628	388.25538	269.29052	-258.54369	265.49230	223.27104	-167.15370	117.40415	213.37173	-189.34628	12.17349	140.40906	-164.38321	393.10583	140.22662	-236.59759	250.32968	144.94207	-82.25949	157.82295	150.19360	-41.09101	58.11549	191.37940	-151.91918	459.69208	191.80201	-97.24391	352.87253	190.84441	-49.76632	242.66835 
114	3.767	0.00000	0.00000	0.00000	193.89879	-221.08347	469.19056	193.89885	-221.08352	469.19058	209.39102	-409.28650	448.22322	189.88783	-633.51978	448.06103	146.36587	-763.40158	476.98514	14.27635	-849.55172	413.49884	229.47752	-610.67279	409.98629	258.04073	-661.27065	354.99548	230.50670	-565.50305	240.21562	179.13799	-613.77516	76.76827	168.78621	-656.93538	20.07583	144.87240	-603.32426	423.55036	88.41839	-639.50076	379.88597	52.92905	-561.90830	254.09273	52.67034	-634.11800	91.39769	62.51430	-666.53409	27.86589	236.10720	-163.43084	387.66927	269.04579	-260.81948	265.07047	223.53484	-167.91433	117.77008	213.61099	-189.30653	12.37610	140.49191	-166.23828	392.43901	138.95920	-242.92144	252.02062	145.30081	-88.33819	160.02182	151.33699	-50.95560	58.87783	191.39338	-153.14483	458.95712	191.63935	-99.04661	351.84361	190.04395	-51.87282	241.51643 
115	3.800	0.00000	0.00000	0.00000	193.60369	-222.27736	469.17870	193.60375	-222.27740	469.17872	207.49753	-410.52040	447.46381	188.68298	-634.81216	447.89257	142.27508	-763.70704	476.74500	7.52640	-845.03760	412.49445	228.63177	-611.97931	410.18620	257.54608	-662.59799	355.39842	230.64409	-566.59622	240.66431	179.60233	-614.25261	76.93409	168.87266	-657.26220	20.19747	143.85624	-604.84431	422.76446	87.75090	-640.61757	378.32531	52.57502	-561.05927	253.67718	55.98829	-630.51768	89.82400	65.34054	-664.28488	26.92482	235.99479	-165.39857	387.20984	268.79182	-262.75785	264.54978	223.41811	-168.54987	118.03663	213.60693	-189.36707	12.51703	140.36896	-168.18533	391.77581	137.45214	-249.14110	253.79888	145.55608	-94.60499	161.85924	152.69030	-62.25362	59.06580	191.10663	-154.44072	458.28770	191.33029	-100.88019	350.90427	189.29233	-53.91293	240.49629 
116	3.833	0.00000	0.00000	0.00000	192.99835	-223.44269	469.16233	192.99841	-223.44273	469.16235	206.51977	-411.73169	447.61147	186.89604	-635.95452	447.60243	138.02869	-763.96630	476.32546	1.14522	-841.56933	411.97730	227.29962	-613.22502	410.32060	256.64992	-664.02908	355.93772	231.85295	-567.62978	241.06275	180.43306	-614.44333	77.20774	169.06506	-656.91290	20.18933	142.42939	-605.79812	422.06346	86.79168	-641.58977	377.05482	56.50642	-556.09440	255.08201	59.10819	-626.41942	91.58397	68.33970	-661.72253	29.51574	235.62049	-167.29562	386.80971	268.61677	-264.30854	263.92886	223.32396	-168.96708	118.12561	213.35189	-189.23785	12.51474	139.98209	-170.08088	391.10541	135.86853	-255.55844	255.91427	145.80105	-101.12258	163.98557	153.18650	-74.16511	59.66515	190.50837	-155.70920	457.64567	190.89169	-102.72608	349.97663	188.70830	-55.97232	239.48085 
117	3.867	0.00000	0.00000	0.00000	192.33644	-224.76553	469.25838	192.33651	-224.76558	469.25841	205.92746	-413.04811	447.69517	185.59844	-637.20785	447.36802	134.06483	-764.23405	475.80531	-4.87913	-838.10065	411.47569	226.41371	-614.58407	410.47233	256.03338	-665.56773	356.40449	232.40499	-568.90828	241.50181	180.85137	-614.63268	77.38149	169.19229	-656.64259	20.08203	141.46314	-606.89630	421.44089	85.68198	-642.39179	376.37531	59.03271	-554.55713	255.21875	58.73306	-624.40793	91.49716	66.02830	-658.75042	28.63725	235.18888	-169.20627	386.62709	268.58328	-265.88475	263.59031	223.43889	-169.59624	118.36454	213.81316	-189.34215	12.62219	139.53905	-172.10739	390.57773	133.86145	-261.96790	258.31726	146.00525	-108.71199	164.69497	153.68089	-86.43804	59.29594	189.78663	-157.12946	457.19528	190.65056	-104.84575	349.18765	188.64925	-58.34440	238.58196 
118	3.900	0.00000	0.00000	0.00000	191.55470	-226.16034	469.34700	191.55476	-226.16038	469.34702	205.65467	-414.37456	447.51550	184.34863	-638.44369	447.30832	130.15488	-764.44385	475.36260	-10.54653	-834.60825	410.70915	225.56024	-616.04645	410.71623	255.34046	-667.14232	356.84285	233.24162	-570.18927	241.88320	181.13793	-615.12894	77.71984	169.23858	-656.72860	20.17100	140.55798	-607.97372	420.98550	84.90939	-643.42030	375.71798	57.59564	-555.93634	254.45571	58.25812	-625.20627	90.48858	65.19350	-659.02622	27.30545	234.61673	-170.96727	386.57936	268.46505	-267.24767	263.35462	223.42292	-170.16543	118.62637	214.01396	-189.44302	12.77814	138.95847	-174.06832	390.15642	132.07806	-267.76212	260.64152	145.91143	-116.21691	164.50272	153.43686	-100.07138	57.98188	188.89867	-158.59928	456.89278	190.37074	-106.95490	348.58455	188.78965	-60.91304	237.78001 
119	3.933	0.00000	0.00000	0.00000	190.71308	-227.60941	469.44942	190.71314	-227.60945	469.44945	205.51753	-415.73191	447.29614	183.37179	-639.71970	447.36856	126.26951	-764.56805	474.79601	-15.95997	-831.51253	410.07190	224.87537	-617.54330	410.97249	254.69415	-668.69431	357.17281	233.16303	-571.28313	242.49306	181.18013	-615.75811	78.16493	169.41281	-657.00689	20.33705	139.84680	-609.13372	420.74143	84.35106	-644.68967	375.37215	54.07008	-558.79629	253.67822	58.01037	-626.80492	89.22980	66.14927	-660.70048	26.23103	233.97895	-172.58832	386.67359	268.17732	-268.50299	263.26042	223.41352	-170.75090	118.89716	214.13169	-189.33220	12.91328	138.31481	-175.92113	389.86404	130.38399	-272.83856	262.80464	145.56213	-123.81278	163.00024	152.34868	-114.68830	55.60058	187.93756	-160.09806	456.75402	190.10568	-108.98194	348.20715	189.17227	-63.46229	237.17973 
120	3.967	0.00000	0.00000	0.00000	189.78436	-229.05563	469.58752	189.78442	-229.05568	469.58754	205.38025	-417.06545	447.02438	182.60330	-640.98952	447.45615	122.50952	-764.57735	474.19248	-21.03296	-828.68916	409.49910	224.30643	-619.00229	411.17358	254.09326	-670.18567	357.38699	232.36717	-572.15402	243.27413	181.11209	-616.34733	78.64167	169.70569	-657.23861	20.48848	139.26560	-610.33436	420.60405	83.68158	-645.99598	375.42617	50.48584	-561.33844	253.62648	57.73074	-627.55740	88.56120	67.31338	-661.40817	25.74167	233.23839	-174.10014	386.86669	267.71590	-269.61125	263.21843	223.40369	-171.25790	119.12448	214.26222	-189.17875	13.01474	137.57074	-177.64859	389.69919	128.65173	-277.26536	264.81153	144.87579	-131.97030	159.80626	150.45796	-129.17591	51.98683	186.90113	-161.57647	456.74587	189.84123	-110.93554	347.99462	189.75469	-66.01161	236.72095 
121	4.000	0.00000	0.00000	0.00000	188.66821	-230.41473	469.75735	188.66828	-230.41478	469.75737	205.20593	-418.25786	446.48754	181.66235	-642.10083	447.48199	119.00430	-764.48305	473.87526	-25.57475	-825.56329	408.55985	223.57222	-620.36101	411.28865	253.34085	-671.59309	357.53837	232.32603	-572.92838	243.83866	181.20331	-616.84855	79.09199	169.83746	-657.27676	20.60804	138.52773	-611.37609	420.38354	82.55690	-647.03750	375.68562	48.07139	-562.15070	254.40494	57.08868	-627.25316	88.98323	66.45873	-660.30167	25.70611	232.26559	-175.52105	387.07091	267.14739	-270.40971	263.05735	223.22524	-171.46262	119.25075	214.32087	-189.40373	13.12427	136.59652	-179.23405	389.63141	126.91238	-281.19554	266.70847	143.38629	-141.11279	154.88086	147.50575	-142.18540	46.96479	185.70326	-162.96238	456.79403	189.49503	-112.85946	347.82017	190.40662	-68.76648	236.21831 
122	4.033	0.00000	0.00000	0.00000	187.44772	-231.73162	469.86771	187.44778	-231.73167	469.86773	205.22990	-419.41556	446.23398	180.55445	-643.13510	447.52089	115.50169	-764.35052	473.50173	-30.19780	-822.72596	408.20269	222.62166	-621.65985	411.35214	252.21825	-672.94116	357.55382	231.97044	-573.68285	244.23220	180.96528	-617.30173	79.36909	169.75876	-657.34753	20.59203	137.61164	-612.23235	420.32042	81.39845	-648.11966	376.11010	46.23916	-563.82236	254.61190	56.29805	-627.57277	88.72433	66.26600	-660.23536	25.33828	231.19104	-176.78160	387.29585	266.68477	-271.21222	263.10642	223.17241	-171.69648	119.56788	214.88665	-189.36396	13.34544	135.51954	-180.58034	389.62994	125.12603	-284.49600	268.41324	142.04853	-151.12717	148.72045	143.72050	-155.75304	40.83251	184.45324	-164.27919	456.91160	189.23444	-114.62206	347.77273	191.33641	-71.40310	235.84552 
